<svg width="200" height="200" viewBox="0 0 200 200" fill="none" xmlns="http://www.w3.org/2000/svg">
<path fill-rule="evenodd" clip-rule="evenodd" d="M11.6934 99.9995C11.6934 76.5791 20.9971 54.118 37.5578 37.5573C54.1185 20.9966 76.5796 11.6929 100 11.6929C123.42 11.6929 145.882 20.9966 162.442 37.5573C179.003 54.118 188.307 76.5791 188.307 99.9995C188.307 123.42 179.003 145.881 162.442 162.442C145.882 179.002 123.42 188.306 100 188.306C76.5796 188.306 54.1185 179.002 37.5578 162.442C20.9971 145.881 11.6934 123.42 11.6934 99.9995V99.9995ZM100 24.3595C79.939 24.3595 60.6997 32.3287 46.5145 46.514C32.3292 60.6992 24.36 79.9386 24.36 99.9995C24.36 120.06 32.3292 139.3 46.5145 153.485C60.6997 167.67 79.939 175.64 100 175.64C120.061 175.64 139.3 167.67 153.486 153.485C167.671 139.3 175.64 120.06 175.64 99.9995C175.64 79.9386 167.671 60.6992 153.486 46.514C139.3 32.3287 120.061 24.3595 100 24.3595V24.3595ZM131.387 68.6262C132.636 69.8764 133.339 71.5718 133.339 73.3395C133.339 75.1073 132.636 76.8027 131.387 78.0529L109.427 99.9995L131.387 121.946C132.638 123.198 133.342 124.896 133.342 126.666C133.342 128.437 132.638 130.134 131.387 131.386C130.135 132.638 128.437 133.341 126.667 133.341C124.896 133.341 123.198 132.638 121.947 131.386L100 109.426L78.0534 131.386C77.4335 132.006 76.6977 132.498 75.8878 132.833C75.0779 133.169 74.2099 133.341 73.3334 133.341C72.4568 133.341 71.5888 133.169 70.7789 132.833C69.969 132.498 69.2332 132.006 68.6134 131.386C67.9935 130.766 67.5018 130.03 67.1664 129.221C66.8309 128.411 66.6583 127.543 66.6583 126.666C66.6583 125.79 66.8309 124.922 67.1664 124.112C67.5018 123.302 67.9935 122.566 68.6134 121.946L90.5734 99.9995L68.6134 78.0529C67.3615 76.801 66.6583 75.1032 66.6583 73.3329C66.6583 71.5625 67.3615 69.8647 68.6134 68.6129C69.8652 67.361 71.563 66.6578 73.3334 66.6578C75.1037 66.6578 76.8015 67.361 78.0534 68.6129L100 90.5729L121.947 68.6129C122.566 67.992 123.302 67.4994 124.112 67.1634C124.922 66.8273 125.79 66.6543 126.667 66.6543C127.544 66.6543 128.412 66.8273 129.222 67.1634C130.032 67.4994 130.767 67.992 131.387 68.6129V68.6262Z" fill="#FF617A"/>
</svg>
