<svg width="66" height="66" viewBox="0 0 66 66" fill="none" xmlns="http://www.w3.org/2000/svg">
<g clip-path="url(#clip0)">
<path d="M10.1395 29.8805L29.8803 29.8805L29.9102 10.1696C29.9068 9.77757 29.9848 9.38905 30.1392 9.02867C30.2937 8.66828 30.5212 8.34386 30.8075 8.07593C31.3864 7.56738 32.1306 7.28692 32.9012 7.28692C33.6718 7.28692 34.416 7.56738 34.9949 8.07593C35.265 8.34056 35.4785 8.6573 35.6224 9.00692C35.7664 9.35654 35.8378 9.73176 35.8324 10.1098L35.8623 29.9403L55.6928 29.9702C56.4585 29.9583 57.1943 30.2633 57.7267 30.8077C58.2353 31.3866 58.5157 32.1309 58.5157 32.9014C58.5157 33.672 58.2353 34.4162 57.7267 34.9951C57.4588 35.2814 57.1344 35.509 56.774 35.6634C56.4136 35.8179 56.0251 35.8959 55.633 35.8924L35.9221 35.9224V55.6033C35.9255 55.9954 35.8475 56.3839 35.6931 56.7443C35.5386 57.1047 35.3111 57.4291 35.0248 57.697C34.4421 58.2221 33.6856 58.5126 32.9012 58.5126C32.1168 58.5126 31.3603 58.2221 30.7776 57.697C30.5075 57.4324 30.294 57.1156 30.1501 56.766C30.0061 56.4164 29.9347 56.0412 29.9401 55.6631L29.9401 35.8625L10.0797 35.8625C9.70452 35.86 9.3337 35.7819 8.98938 35.6329C8.64506 35.4839 8.33432 35.267 8.07571 34.9951C7.56716 34.4162 7.28671 33.672 7.28671 32.9014C7.28671 32.1309 7.56716 31.3866 8.07571 30.8077C8.33759 30.5197 8.656 30.2887 9.01107 30.1292C9.36615 29.9697 9.75028 29.885 10.1395 29.8805Z" fill="#C0C0C0"/>
</g>
<defs>
<clipPath id="clip0">
<rect width="46.5294" height="46.5294" fill="white" transform="translate(0 32.9012) rotate(-45)"/>
</clipPath>
</defs>
</svg>
