<svg width="25" height="25" viewBox="0 0 25 25" fill="none" xmlns="http://www.w3.org/2000/svg">
<path d="M11.4585 15.6104C11.4585 15.8866 11.5682 16.1516 11.7636 16.3469C11.9589 16.5423 12.2239 16.652 12.5001 16.652C12.7764 16.652 13.0413 16.5423 13.2367 16.3469C13.432 16.1516 13.5418 15.8866 13.5418 15.6104V8.15413L16.9199 11.5323L18.3928 10.0593L12.5001 4.16663L6.60742 10.0593L8.08034 11.5323L11.4585 8.15621V15.6114V15.6104Z" fill="white"/>
<path d="M4.16675 14.5833H6.25008V18.7499H18.7501V14.5833H20.8334V18.7499C20.8334 19.3025 20.6139 19.8324 20.2232 20.2231C19.8325 20.6138 19.3026 20.8333 18.7501 20.8333H6.25008C5.69755 20.8333 5.16764 20.6138 4.77694 20.2231C4.38624 19.8324 4.16675 19.3025 4.16675 18.7499V14.5833Z" fill="white"/>
</svg>
