<svg width="21" height="22" viewBox="0 0 21 22" fill="none" xmlns="http://www.w3.org/2000/svg">
<g clip-path="url(#clip0)">
<path d="M10.4857 13.9429C11.9217 13.9429 13.0857 12.7789 13.0857 11.3429C13.0857 9.90698 11.9217 8.74292 10.4857 8.74292C9.0498 8.74292 7.88574 9.90698 7.88574 11.3429C7.88574 12.7789 9.0498 13.9429 10.4857 13.9429Z" fill="#5B5B5B"/>
<path d="M20.1968 11.1219C19.4323 9.14434 18.1051 7.43417 16.3792 6.20273C14.6534 4.97128 12.6045 4.27254 10.4858 4.19287C8.36714 4.27254 6.31826 4.97128 4.59239 6.20273C2.86652 7.43417 1.53931 9.14434 0.774807 11.1219C0.723176 11.2647 0.723176 11.4211 0.774807 11.5639C1.53931 13.5414 2.86652 15.2516 4.59239 16.483C6.31826 17.7145 8.36714 18.4132 10.4858 18.4929C12.6045 18.4132 14.6534 17.7145 16.3792 16.483C18.1051 15.2516 19.4323 13.5414 20.1968 11.5639C20.2484 11.4211 20.2484 11.2647 20.1968 11.1219ZM10.4858 15.5679C9.65018 15.5679 8.83332 15.3201 8.13852 14.8558C7.44373 14.3916 6.9022 13.7317 6.58242 12.9597C6.26264 12.1877 6.17897 11.3382 6.34199 10.5186C6.50501 9.69904 6.9074 8.94622 7.49828 8.35535C8.08916 7.76447 8.84198 7.36208 9.66155 7.19905C10.4811 7.03603 11.3306 7.1197 12.1026 7.43948C12.8747 7.75926 13.5345 8.30079 13.9988 8.99559C14.463 9.69039 14.7108 10.5072 14.7108 11.3429C14.7091 12.4629 14.2634 13.5365 13.4714 14.3285C12.6795 15.1205 11.6058 15.5662 10.4858 15.5679Z" fill="#5B5B5B"/>
</g>
<defs>
<clipPath id="clip0">
<rect width="20.8" height="20.8" fill="white" transform="translate(0.0856934 0.942871)"/>
</clipPath>
</defs>
</svg>
